<svg width="561" height="239" viewBox="0 0 561 239" fill="none" xmlns="http://www.w3.org/2000/svg">
<path d="M0 2.34774H32.9997V237.122H0V2.34774Z" fill="#333333"/>
<path d="M428.997 167.863C428.997 178.597 429.013 185.528 429.499 190.777C429.963 195.793 430.746 197.607 431.285 198.517C431.76 199.319 432.301 200.077 432.901 200.783C433.492 201.478 434.14 202.124 434.838 202.713C437.011 204.546 439.666 205.829 442.587 206.346C443.531 206.514 444.504 206.601 445.497 206.601C446.489 206.601 447.462 206.514 448.406 206.346C451.33 205.828 453.987 204.543 456.161 202.708C456.856 202.121 457.501 201.478 458.09 200.786C458.691 200.079 459.233 199.32 459.708 198.517C460.247 197.607 461.03 195.793 461.495 190.777C461.97 185.642 461.996 178.897 461.996 168.556V69.0453C461.997 61.6464 462.016 55.0396 462.339 49.3025C462.419 47.883 462.517 46.5167 462.639 45.2049C463.019 41.0996 463.657 37.0188 464.852 33.0266C465.794 29.8803 467.082 26.789 468.862 23.7841C473.117 16.599 479.133 10.6069 486.347 6.3686C493.192 2.34696 500.483 0.847234 507.853 0.170247C510.324 -0.0567492 512.668 -0.0567492 515.139 0.170247C522.509 0.847234 529.8 2.34696 536.645 6.3686C543.859 10.6069 549.875 16.599 554.13 23.7841C555.91 26.789 557.198 29.8803 558.14 33.0266C559.335 37.0188 559.973 41.0996 560.353 45.2049C560.475 46.5167 560.574 47.883 560.653 49.3025C560.973 54.9737 560.994 61.4947 560.996 68.7906C561.005 124.901 560.996 181.011 560.996 237.122H527.996V70.5614C527.995 60.1547 527.971 53.3776 527.494 48.2232C527.03 43.207 526.247 41.3929 525.708 40.483C525.232 39.6795 524.69 38.9208 524.089 38.2138C523.5 37.5218 522.855 36.8789 522.16 36.2923C519.987 34.4567 517.329 33.1717 514.406 32.6536C513.461 32.4863 512.489 32.3989 511.496 32.3989C510.503 32.3989 509.531 32.4863 508.586 32.6536C505.665 33.1713 503.01 34.4544 500.838 36.2873C500.14 36.8762 499.491 37.5219 498.9 38.2172C498.3 38.9232 497.759 39.6808 497.284 40.483C496.745 41.3929 495.962 43.207 495.498 48.2232C495.012 53.472 494.996 60.4034 494.996 71.1366V170.208C494.995 177.706 494.972 184.387 494.627 190.167C494.552 191.419 494.462 192.628 494.354 193.795C493.974 197.9 493.335 201.981 492.14 205.973C491.198 209.12 489.911 212.211 488.131 215.216C483.876 222.401 477.86 228.393 470.646 232.631C463.801 236.653 456.509 238.153 449.139 238.83C446.668 239.057 444.325 239.057 441.854 238.83C434.484 238.153 427.192 236.653 420.347 232.631C413.134 228.393 407.118 222.401 402.862 215.216C401.083 212.211 399.795 209.12 398.853 205.973C397.658 201.981 397.019 197.9 396.639 193.795C396.531 192.628 396.441 191.419 396.367 190.167C396.018 184.322 395.998 177.556 395.997 169.955V70.4991C395.996 60.1276 395.971 53.3673 395.495 48.2232C395.031 43.207 394.248 41.3929 393.709 40.483C393.233 39.6795 392.691 38.9208 392.09 38.2138C391.501 37.5218 390.856 36.8789 390.161 36.2923C387.988 34.4567 385.33 33.1717 382.407 32.6536C381.462 32.4863 380.49 32.3989 379.497 32.3989C378.504 32.3989 377.532 32.4863 376.587 32.6536C373.666 33.1713 371.011 34.4544 368.839 36.2873C368.141 36.8762 367.492 37.5219 366.901 38.2172C366.301 38.9232 365.76 39.6808 365.285 40.483C364.746 41.3929 363.963 43.207 363.499 48.2232C363.013 53.472 362.997 60.4034 362.997 71.1366V237.122H329.997V69.0453C329.998 61.6464 330.017 55.0396 330.34 49.3025C330.42 47.883 330.518 46.5167 330.64 45.2049C331.02 41.0996 331.658 37.0188 332.853 33.0266C333.795 29.8803 335.083 26.789 336.863 23.7841C341.118 16.599 347.134 10.6069 354.348 6.3686C361.193 2.34696 368.484 0.847234 375.854 0.170247C378.325 -0.0567492 380.669 -0.0567492 383.14 0.170247C390.51 0.847234 397.801 2.34696 404.646 6.3686C411.86 10.6069 417.876 16.599 422.131 23.7841C423.911 26.789 425.199 29.8803 426.141 33.0266C427.336 37.0188 427.974 41.0996 428.355 45.2049C428.476 46.5167 428.574 47.883 428.654 49.3025C428.974 54.9741 428.995 61.4958 428.997 68.7924V167.863Z" fill="#333333"/>
<path d="M65.9995 2.34774H98.9992V164.342H101.604L175.606 2.34774H236.891L261.558 191.341H263.998V2.34774H296.998V237.122H234.534L205.423 14.0864H203.243L101.356 237.122H65.9995V2.34774Z" fill="#333333"/>
</svg>
